<svg xmlns="http://www.w3.org/2000/svg" viewBox="0 0 32 32"><path fill="#fff" d="M19.11 17.63c-.28-.14-1.64-.81-1.9-.9-.26-.1-.45-.14-.64.14-.19.28-.73.9-.9 1.08-.17.19-.33.21-.61.07-.28-.14-1.2-.44-2.29-1.41-.85-.76-1.43-1.7-1.6-1.98-.17-.28-.02-.44.12-.58.12-.12.28-.33.42-.49.14-.16.19-.28.28-.47.09-.19.05-.35-.02-.49-.07-.14-.64-1.54-.88-2.11-.23-.56-.47-.48-.64-.49-.16-.01-.35-.01-.54-.01s-.49.07-.75.35c-.26.28-1 1-1 2.45 0 1.45 1.02 2.85 1.16 3.04.14.19 2 3.05 4.84 4.28.68.29 1.21.46 1.62.59.68.22 1.3.19 1.79.11.55-.08 1.64-.67 1.87-1.31.23-.64.23-1.19.16-1.31-.07-.12-.26-.19-.54-.33z"/><path fill="#fff" d="M26.88 5.12A15.9 15.9 0 0016 1C7.72 1 1 7.72 1 16c0 2.64.69 5.2 2 7.46L1.7 30.3l6.95-1.27A14.92 14.92 0 0016 31c8.28 0 15-6.72 15-15 0-3.99-1.56-7.75-4.12-10.88zM16 28.9c-2.6 0-5.05-.76-7.15-2.2l-.51-.33-4.12.75.78-4-.33-.52A12.88 12.88 0 013.1 16C3.1 8.86 8.86 3.1 16 3.1S28.9 8.86 28.9 16 23.14 28.9 16 28.9z"/></svg>
